<svg width="24" height="24" viewBox="0 0 24 24" fill="none" xmlns="http://www.w3.org/2000/svg">
<path fill-rule="evenodd" clip-rule="evenodd" d="M0.925415 1C0.925415 0.447715 1.37313 0 1.92542 0H4.44406C4.99634 0 5.44406 0.447715 5.44406 1V2.51138L22.1438 3.66908C22.4217 3.68834 22.6789 3.82265 22.8536 4.03966C23.0283 4.25667 23.1045 4.5367 23.0639 4.81231L21.8046 13.3679C21.7324 13.8586 21.3113 14.2222 20.8153 14.2222H5.44406V17.1111H18.2785L18.2966 17.1111C19.2203 17.1111 20.112 17.4669 20.774 18.1094C21.437 18.7529 21.8152 19.6322 21.8152 20.5555C21.8152 21.4789 21.437 22.3581 20.774 23.0016C20.112 23.6441 19.2203 24 18.2966 24C17.3729 24 16.4812 23.6441 15.8192 23.0016C15.1562 22.3581 14.778 21.4789 14.778 20.5555C14.778 20.0504 14.8911 19.5585 15.1022 19.1111H7.63843C7.84951 19.5585 7.9627 20.0504 7.9627 20.5555C7.9627 21.4789 7.5845 22.3581 6.92147 23.0016C6.25945 23.6441 5.36777 24 4.44406 24C3.52034 24 2.62866 23.6441 1.96665 23.0016C1.30362 22.3581 0.925415 21.4789 0.925415 20.5555C0.925415 19.6322 1.30362 18.7529 1.96665 18.1094C2.38426 17.7041 2.89327 17.4129 3.44406 17.2531V3.45007C3.44405 3.44701 3.44405 3.44395 3.44406 3.44088V2H1.92542C1.37313 2 0.925415 1.55228 0.925415 1ZM5.44406 4.51618V12.2222H19.9517L20.928 5.58959L5.44406 4.51618ZM18.2966 19.1111H18.2845C17.8767 19.1142 17.492 19.273 17.2121 19.5446C16.9305 19.818 16.778 20.1823 16.778 20.5555C16.778 20.9288 16.9305 21.2931 17.2121 21.5664C17.4948 21.8408 17.8843 22 18.2966 22C18.7089 22 19.0984 21.8408 19.3811 21.5664C19.6627 21.2931 19.8152 20.9288 19.8152 20.5555C19.8152 20.1823 19.6627 19.818 19.3811 19.5446C19.1002 19.272 18.7136 19.113 18.3042 19.1111L18.2966 19.1111ZM4.44406 19.1111L4.4365 19.1111C4.02705 19.113 3.6405 19.272 3.35957 19.5446C3.07792 19.818 2.92542 20.1823 2.92542 20.5555C2.92542 20.9288 3.07792 21.2931 3.35957 21.5664C3.64223 21.8408 4.0318 22 4.44406 22C4.85632 22 5.24589 21.8408 5.52855 21.5664C5.8102 21.2931 5.9627 20.9288 5.9627 20.5555C5.9627 20.1823 5.8102 19.818 5.52855 19.5446C5.24866 19.273 4.86394 19.1142 4.45616 19.1111H4.44406Z" fill="#6C7072"/>
</svg>
