<svg width="40" height="40" viewBox="0 0 40 40" fill="none" xmlns="http://www.w3.org/2000/svg">
<path d="M16.25 11.4468C15.9185 11.4468 15.6005 11.5755 15.3661 11.8047C15.1317 12.0338 15 12.3446 15 12.6687C15 12.9927 15.1317 13.3035 15.3661 13.5327C15.6005 13.7618 15.9185 13.8906 16.25 13.8906C16.5815 13.8906 16.8995 13.7618 17.1339 13.5327C17.3683 13.3035 17.5 12.9927 17.5 12.6687C17.5 12.3446 17.3683 12.0338 17.1339 11.8047C16.8995 11.5755 16.5815 11.4468 16.25 11.4468ZM12.7125 11.4468C12.9708 10.7313 13.4497 10.1118 14.0832 9.67355C14.7168 9.23533 15.4739 9 16.25 9C17.0261 9 17.7832 9.23533 18.4167 9.67355C19.0503 10.1118 19.5292 10.7313 19.7875 11.4468H28.75C29.0815 11.4468 29.3995 11.5755 29.6339 11.8047C29.8683 12.0338 30 12.3446 30 12.6687C30 12.9927 29.8683 13.3035 29.6339 13.5327C29.3995 13.7618 29.0815 13.8906 28.75 13.8906H19.7875C19.5292 14.606 19.0503 15.2255 18.4167 15.6638C17.7832 16.102 17.0261 16.3373 16.25 16.3373C15.4739 16.3373 14.7168 16.102 14.0832 15.6638C13.4497 15.2255 12.9708 14.606 12.7125 13.8906H11.25C10.9185 13.8906 10.6005 13.7618 10.3661 13.5327C10.1317 13.3035 10 12.9927 10 12.6687C10 12.3446 10.1317 12.0338 10.3661 11.8047C10.6005 11.5755 10.9185 11.4468 11.25 11.4468H12.7125ZM23.75 18.7781C23.4185 18.7781 23.1005 18.9068 22.8661 19.136C22.6317 19.3651 22.5 19.6759 22.5 20C22.5 20.3241 22.6317 20.6349 22.8661 20.864C23.1005 21.0932 23.4185 21.2219 23.75 21.2219C24.0815 21.2219 24.3995 21.0932 24.6339 20.864C24.8683 20.6349 25 20.3241 25 20C25 19.6759 24.8683 19.3651 24.6339 19.136C24.3995 18.9068 24.0815 18.7781 23.75 18.7781ZM20.2125 18.7781C20.4708 18.0627 20.9497 17.4431 21.5833 17.0049C22.2168 16.5667 22.9739 16.3313 23.75 16.3313C24.5261 16.3313 25.2832 16.5667 25.9167 17.0049C26.5503 17.4431 27.0292 18.0627 27.2875 18.7781H28.75C29.0815 18.7781 29.3995 18.9068 29.6339 19.136C29.8683 19.3651 30 19.6759 30 20C30 20.3241 29.8683 20.6349 29.6339 20.864C29.3995 21.0932 29.0815 21.2219 28.75 21.2219H27.2875C27.0292 21.9373 26.5503 22.5569 25.9167 22.9951C25.2832 23.4333 24.5261 23.6687 23.75 23.6687C22.9739 23.6687 22.2168 23.4333 21.5833 22.9951C20.9497 22.5569 20.4708 21.9373 20.2125 21.2219H11.25C10.9185 21.2219 10.6005 21.0932 10.3661 20.864C10.1317 20.6349 10 20.3241 10 20C10 19.6759 10.1317 19.3651 10.3661 19.136C10.6005 18.9068 10.9185 18.7781 11.25 18.7781H20.2125ZM16.25 26.1094C15.9185 26.1094 15.6005 26.2382 15.3661 26.4673C15.1317 26.6965 15 27.0073 15 27.3313C15 27.6554 15.1317 27.9662 15.3661 28.1953C15.6005 28.4245 15.9185 28.5532 16.25 28.5532C16.5815 28.5532 16.8995 28.4245 17.1339 28.1953C17.3683 27.9662 17.5 27.6554 17.5 27.3313C17.5 27.0073 17.3683 26.6965 17.1339 26.4673C16.8995 26.2382 16.5815 26.1094 16.25 26.1094ZM12.7125 26.1094C12.9708 25.394 13.4497 24.7745 14.0832 24.3362C14.7168 23.898 15.4739 23.6627 16.25 23.6627C17.0261 23.6627 17.7832 23.898 18.4167 24.3362C19.0503 24.7745 19.5292 25.394 19.7875 26.1094H28.75C29.0815 26.1094 29.3995 26.2382 29.6339 26.4673C29.8683 26.6965 30 27.0073 30 27.3313C30 27.6554 29.8683 27.9662 29.6339 28.1953C29.3995 28.4245 29.0815 28.5532 28.75 28.5532H19.7875C19.5292 29.2687 19.0503 29.8882 18.4167 30.3264C17.7832 30.7647 17.0261 31 16.25 31C15.4739 31 14.7168 30.7647 14.0832 30.3264C13.4497 29.8882 12.9708 29.2687 12.7125 28.5532H11.25C10.9185 28.5532 10.6005 28.4245 10.3661 28.1953C10.1317 27.9662 10 27.6554 10 27.3313C10 27.0073 10.1317 26.6965 10.3661 26.4673C10.6005 26.2382 10.9185 26.1094 11.25 26.1094H12.7125Z" fill="#64748B"/>
</svg>
