<svg width="13" height="13" viewBox="0 0 13 13" fill="none" xmlns="http://www.w3.org/2000/svg">
<mask id="mask0_426_6635" style="mask-type:luminance" maskUnits="userSpaceOnUse" x="1" y="1" width="12" height="12">
<path fill-rule="evenodd" clip-rule="evenodd" d="M1.08334 1.62494H12.1726V12.188H1.08334V1.62494Z" fill="white"/>
</mask>
<g mask="url(#mask0_426_6635)">
<path fill-rule="evenodd" clip-rule="evenodd" d="M6.62875 12.188C6.56158 12.188 6.49496 12.1718 6.43429 12.1388C6.26475 12.0461 2.27104 9.84479 1.29767 6.81471C1.29713 6.81471 1.29713 6.81417 1.29713 6.81417C0.686126 4.90642 1.36646 2.509 3.56292 1.80104C4.59425 1.46738 5.71821 1.61417 6.62713 2.18779C7.50788 1.63096 8.67788 1.47713 9.68863 1.80104C11.8873 2.51009 12.5698 4.90696 11.9593 6.81417C11.0173 9.80959 6.99438 12.044 6.82375 12.1377C6.76308 12.1713 6.69592 12.188 6.62875 12.188" fill="#E81B76"/>
</g>
<path fill-rule="evenodd" clip-rule="evenodd" d="M9.83327 5.75516C9.62364 5.75516 9.44598 5.59428 9.42864 5.38195C9.39289 4.9367 9.09498 4.56078 8.67085 4.42374C8.45689 4.35441 8.33989 4.12528 8.40869 3.91241C8.47856 3.69899 8.70552 3.58307 8.92002 3.65024C9.65831 3.88912 10.1756 4.54291 10.239 5.31587C10.2569 5.53957 10.0906 5.73566 9.86685 5.75353C9.85548 5.75462 9.84464 5.75516 9.83327 5.75516" fill="white"/>
</svg>
